{
	"asset":{
		"generator":"Khronos glTF Blender I/O v3.6.28",
		"version":"2.0"
	},
	"scene":0,
	"scenes":[
		{
			"name":"Scene",
			"nodes":[
				0,
				1,
				2
			]
		}
	],
	"nodes":[
		{
			"mesh":0,
			"name":"Vert"
		},
		{
			"mesh":1,
			"name":"Mball.008",
			"scale":[
				1.1635489463806152,
				1.1635489463806152,
				1.1635489463806152
			],
			"translation":[
				0.07100293040275574,
				5.566996097564697,
				2.183412551879883
			]
		},
		{
			"mesh":2,
			"name":"Circle",
			"scale":[
				4.045354843139648,
				4.045354843139648,
				4.045354843139648
			]
		}
	],
	"materials":[
		{
			"doubleSided":true,
			"name":"Material.001",
			"pbrMetallicRoughness":{
				"baseColorFactor":[
					0.0835321769118309,
					0.05064288154244423,
					0.028815165162086487,
					1
				],
				"metallicFactor":0,
				"roughnessFactor":0.9777777791023254
			}
		},
		{
			"doubleSided":true,
			"name":"Material.002",
			"pbrMetallicRoughness":{
				"baseColorFactor":[
					0.011168325319886208,
					0.16264374554157257,
					0.01263820193707943,
					1
				],
				"metallicFactor":0,
				"roughnessFactor":0.5333333611488342
			}
		},
		{
			"doubleSided":true,
			"name":"Material",
			"pbrMetallicRoughness":{
				"baseColorFactor":[
					0.016614241525530815,
					0.20389552414417267,
					0.0031426907517015934,
					1
				],
				"metallicFactor":0,
				"roughnessFactor":0.4000000059604645
			}
		},
		{
			"doubleSided":true,
			"name":"Material.003",
			"pbrMetallicRoughness":{
				"baseColorFactor":[
					0.04696233198046684,
					0.019752614200115204,
					0.007460520137101412,
					1
				],
				"metallicFactor":0,
				"roughnessFactor":0.7888889312744141
			}
		}
	],
	"meshes":[
		{
			"name":"Vert",
			"primitives":[
				{
					"attributes":{
						"POSITION":0,
						"NORMAL":1
					},
					"indices":2,
					"material":0
				}
			]
		},
		{
			"name":"Mesh",
			"primitives":[
				{
					"attributes":{
						"POSITION":3,
						"NORMAL":4
					},
					"indices":5,
					"material":1
				}
			]
		},
		{
			"name":"Circle",
			"primitives":[
				{
					"attributes":{
						"POSITION":6,
						"NORMAL":7,
						"TEXCOORD_0":8
					},
					"indices":9,
					"material":2
				},
				{
					"attributes":{
						"POSITION":10,
						"NORMAL":11,
						"TEXCOORD_0":12
					},
					"indices":13,
					"material":3
				}
			]
		}
	],
	"accessors":[
		{
			"bufferView":0,
			"componentType":5126,
			"count":1684,
			"max":[
				3.139436721801758,
				6.480100154876709,
				2.445605516433716
			],
			"min":[
				-2.264280319213867,
				-0.08966200053691864,
				-1.6002241373062134
			],
			"type":"VEC3"
		},
		{
			"bufferView":1,
			"componentType":5126,
			"count":1684,
			"type":"VEC3"
		},
		{
			"bufferView":2,
			"componentType":5123,
			"count":3228,
			"type":"SCALAR"
		},
		{
			"bufferView":3,
			"componentType":5126,
			"count":286,
			"max":[
				3.188037395477295,
				2.6407663822174072,
				1.252212643623352
			],
			"min":[
				-3.5665926933288574,
				-1.6469049453735352,
				-4.2952423095703125
			],
			"type":"VEC3"
		},
		{
			"bufferView":4,
			"componentType":5126,
			"count":286,
			"type":"VEC3"
		},
		{
			"bufferView":5,
			"componentType":5123,
			"count":288,
			"type":"SCALAR"
		},
		{
			"bufferView":6,
			"componentType":5126,
			"count":96,
			"max":[
				1,
				0,
				1
			],
			"min":[
				-1,
				-0.0695909708738327,
				-1
			],
			"type":"VEC3"
		},
		{
			"bufferView":7,
			"componentType":5126,
			"count":96,
			"type":"VEC3"
		},
		{
			"bufferView":8,
			"componentType":5126,
			"count":96,
			"type":"VEC2"
		},
		{
			"bufferView":9,
			"componentType":5123,
			"count":342,
			"type":"SCALAR"
		},
		{
			"bufferView":10,
			"componentType":5126,
			"count":48,
			"max":[
				1,
				-0.0695909708738327,
				1
			],
			"min":[
				-1,
				-0.13749055564403534,
				-1
			],
			"type":"VEC3"
		},
		{
			"bufferView":11,
			"componentType":5126,
			"count":48,
			"type":"VEC3"
		},
		{
			"bufferView":12,
			"componentType":5126,
			"count":48,
			"type":"VEC2"
		},
		{
			"bufferView":13,
			"componentType":5123,
			"count":114,
			"type":"SCALAR"
		}
	],
	"bufferViews":[
		{
			"buffer":0,
			"byteLength":20208,
			"byteOffset":0,
			"target":34962
		},
		{
			"buffer":0,
			"byteLength":20208,
			"byteOffset":20208,
			"target":34962
		},
		{
			"buffer":0,
			"byteLength":6456,
			"byteOffset":40416,
			"target":34963
		},
		{
			"buffer":0,
			"byteLength":3432,
			"byteOffset":46872,
			"target":34962
		},
		{
			"buffer":0,
			"byteLength":3432,
			"byteOffset":50304,
			"target":34962
		},
		{
			"buffer":0,
			"byteLength":576,
			"byteOffset":53736,
			"target":34963
		},
		{
			"buffer":0,
			"byteLength":1152,
			"byteOffset":54312,
			"target":34962
		},
		{
			"buffer":0,
			"byteLength":1152,
			"byteOffset":55464,
			"target":34962
		},
		{
			"buffer":0,
			"byteLength":768,
			"byteOffset":56616,
			"target":34962
		},
		{
			"buffer":0,
			"byteLength":684,
			"byteOffset":57384,
			"target":34963
		},
		{
			"buffer":0,
			"byteLength":576,
			"byteOffset":58068,
			"target":34962
		},
		{
			"buffer":0,
			"byteLength":576,
			"byteOffset":58644,
			"target":34962
		},
		{
			"buffer":0,
			"byteLength":384,
			"byteOffset":59220,
			"target":34962
		},
		{
			"buffer":0,
			"byteLength":228,
			"byteOffset":59604,
			"target":34963
		}
	],
	"buffers":[
		{
			"byteLength":59832,
			"uri":"Tree%20lowpoly.bin"
		}
	]
}
